<svg xmlns="http://www.w3.org/2000/svg" viewBox="0 0 208.17 23.64"><defs><style>.cls-1{fill:#fff;}</style></defs><title>Asset 1</title><g id="Layer_2" data-name="Layer 2"><g id="Layer_1-2" data-name="Layer 1"><path class="cls-1" d="M52.72,19.8,46,2.51A1.28,1.28,0,0,1,47.23.77h2.06a1.28,1.28,0,0,1,1.2.85L55.69,16,60.86,1.61a1.28,1.28,0,0,1,1.2-.85h2.06a1.28,1.28,0,0,1,1.19,1.74L58.65,19.8a1.28,1.28,0,0,1-1.19.82H53.92A1.28,1.28,0,0,1,52.72,19.8Z"/><path class="cls-1" d="M67.35,2.43a2.26,2.26,0,1,1,2.26,2.26A2.28,2.28,0,0,1,67.35,2.43Zm.39,16.9V7.52A1.28,1.28,0,0,1,69,6.24h1.22a1.28,1.28,0,0,1,1.28,1.28V19.34a1.28,1.28,0,0,1-1.28,1.28H69A1.28,1.28,0,0,1,67.74,19.34Z"/><path class="cls-1" d="M74.63,17.76l.3-.49a1.27,1.27,0,0,1,1.73-.43,8.23,8.23,0,0,0,4,1.22c1.64,0,2.41-.65,2.41-1.55,0-2.38-8.54-.45-8.54-6.1,0-2.41,2.11-4.52,5.89-4.52a9.3,9.3,0,0,1,4.76,1.25,1.28,1.28,0,0,1,.44,1.75l-.18.31a1.27,1.27,0,0,1-1.74.46,6.5,6.5,0,0,0-3.25-.87c-1.37,0-2.26.62-2.26,1.43,0,2.14,8.51.36,8.51,6.16C86.67,19,84.43,21,80.45,21A10.32,10.32,0,0,1,75,19.5,1.27,1.27,0,0,1,74.63,17.76Z"/><path class="cls-1" d="M89.08,2.43a2.26,2.26,0,1,1,2.26,2.26A2.28,2.28,0,0,1,89.08,2.43Zm.39,16.9V7.52a1.28,1.28,0,0,1,1.28-1.28H92a1.28,1.28,0,0,1,1.28,1.28V19.34A1.28,1.28,0,0,1,92,20.62H90.74A1.28,1.28,0,0,1,89.46,19.34Z"/><path class="cls-1" d="M97.73,17V9.55h-1.1a1.28,1.28,0,0,1-1.28-1.28V7.52a1.28,1.28,0,0,1,1.28-1.28h1.1V3.59A1.28,1.28,0,0,1,99,2.31h1.25a1.28,1.28,0,0,1,1.28,1.28V6.24h1.64a1.28,1.28,0,0,1,1.28,1.28v.74a1.28,1.28,0,0,1-1.28,1.28h-1.64V16c0,.89.48,1.58,1.31,1.58h.24a1.35,1.35,0,0,1,1.46,1l.15.54a1.28,1.28,0,0,1-.79,1.55,6.22,6.22,0,0,1-2.1.32C99.16,21,97.73,19.6,97.73,17Z"/><path class="cls-1" d="M110.8,19.34V4.49h-4.52A1.28,1.28,0,0,1,105,3.21V2A1.28,1.28,0,0,1,106.27.77h13.27A1.28,1.28,0,0,1,120.83,2V3.21a1.28,1.28,0,0,1-1.28,1.28h-4.49V19.34a1.28,1.28,0,0,1-1.28,1.28h-1.7A1.28,1.28,0,0,1,110.8,19.34Z"/><path class="cls-1" d="M134.46,20.62a1.28,1.28,0,0,1-1.28-1.28V11.87c0-2-1-2.62-2.68-2.62a4.19,4.19,0,0,0-3.27,1.7v8.39a1.28,1.28,0,0,1-1.28,1.28h-1.22a1.28,1.28,0,0,1-1.28-1.28V2A1.28,1.28,0,0,1,124.72.77h1.22A1.28,1.28,0,0,1,127.22,2V8.12a6.65,6.65,0,0,1,5.06-2.23c3.15,0,4.67,1.73,4.67,4.52v8.93a1.28,1.28,0,0,1-1.28,1.28Z"/><path class="cls-1" d="M139.78,13.41a7.32,7.32,0,0,1,7.44-7.53c4.29,0,7.2,3.21,7.2,7.92v.83H143.74A3.87,3.87,0,0,0,147.88,18a6.56,6.56,0,0,0,2.89-.75,1.28,1.28,0,0,1,1.67.39l.24.36a1.29,1.29,0,0,1-.43,1.84A9.84,9.84,0,0,1,147.46,21C143.08,21,139.78,18,139.78,13.41Zm7.44-4.52a3.45,3.45,0,0,0-3.54,3.18h7.08A3.33,3.33,0,0,0,147.22,8.89Z"/><path class="cls-1" d="M176.27,20.62A1.28,1.28,0,0,1,175,19.34v-7.8c0-1.34-.6-2.29-2.14-2.29a3.82,3.82,0,0,0-3,1.67v8.42a1.28,1.28,0,0,1-1.28,1.28h-1.25a1.28,1.28,0,0,1-1.28-1.28v-7.8c0-1.34-.6-2.29-2.14-2.29a3.86,3.86,0,0,0-3,1.7v8.39a1.28,1.28,0,0,1-1.28,1.28h-1.22a1.28,1.28,0,0,1-1.28-1.28V7.52a1.28,1.28,0,0,1,1.28-1.28h1.22a1.28,1.28,0,0,1,1.28,1.28v.6a6.29,6.29,0,0,1,4.7-2.23,3.8,3.8,0,0,1,4,2.62,6.1,6.1,0,0,1,4.94-2.62c2.65,0,4.23,1.4,4.23,4.35v9.11a1.28,1.28,0,0,1-1.28,1.28Z"/><path class="cls-1" d="M181.48,19.3A1.67,1.67,0,1,1,183.15,21,1.69,1.69,0,0,1,181.48,19.3Z"/><path class="cls-1" d="M186.63,17a3.87,3.87,0,0,1,7.73,0,3.87,3.87,0,0,1-7.73,0Zm5.73,0a1.88,1.88,0,1,0-3.74,0,1.89,1.89,0,1,0,3.74,0Z"/><path class="cls-1" d="M195.78,20V14a.65.65,0,0,1,.65-.65h.62a.65.65,0,0,1,.65.65v.35A3.14,3.14,0,0,1,200,13.18v1.88a2.54,2.54,0,0,0-.53,0,2.45,2.45,0,0,0-1.8.83V20a.65.65,0,0,1-.65.65h-.62A.65.65,0,0,1,195.78,20Z"/><path class="cls-1" d="M201.39,22l.15-.25a.64.64,0,0,1,.9-.21,3.14,3.14,0,0,0,1.78.48,1.79,1.79,0,0,0,2-1.85v-.74A2.85,2.85,0,0,1,204,20.63c-1.83,0-3.22-1.29-3.22-3.72s1.38-3.72,3.22-3.72a2.81,2.81,0,0,1,2.25,1.12V14a.65.65,0,0,1,.65-.65h.64a.65.65,0,0,1,.65.65v6.16c0,2.78-2.15,3.47-3.95,3.47a4.56,4.56,0,0,1-2.64-.7A.65.65,0,0,1,201.39,22Zm4.85-4V15.73a2.08,2.08,0,0,0-1.65-.83,1.81,1.81,0,0,0-1.85,2,1.81,1.81,0,0,0,1.85,2A2.13,2.13,0,0,0,206.24,18.09Z"/><path class="cls-1" d="M.69,14.27A.68.68,0,0,1,.36,13L23.9.08a.68.68,0,1,1,.66,1.2L1,14.18A.68.68,0,0,1,.69,14.27Z"/><path class="cls-1" d="M7.35,17.92A.68.68,0,0,1,7,16.63L30.56,3.73a.68.68,0,0,1,.66,1.2L7.67,17.83A.68.68,0,0,1,7.35,17.92Z"/><path class="cls-1" d="M14,21.57a.68.68,0,0,1-.33-1.29L37.22,7.38a.68.68,0,0,1,.66,1.2L14.33,21.48A.68.68,0,0,1,14,21.57Z"/><path class="cls-1" d="M37.55,14.27a.68.68,0,0,1-.33-.08L13.68,1.28a.68.68,0,0,1,.66-1.2L37.88,13a.68.68,0,0,1-.33,1.29Z"/><path class="cls-1" d="M30.89,17.92a.68.68,0,0,1-.33-.08L7,4.93a.68.68,0,0,1,.66-1.2l23.54,12.9a.68.68,0,0,1-.33,1.29Z"/><path class="cls-1" d="M24.23,21.57a.68.68,0,0,1-.33-.08L.36,8.58A.68.68,0,1,1,1,7.38l23.54,12.9a.68.68,0,0,1-.33,1.29Z"/></g></g></svg>